<mxfile host="app.diagrams.net" agent="Mozilla/5.0 (Windows NT 10.0; Win64; x64) AppleWebKit/537.36 (KHTML, like Gecko) Chrome/134.0.0.0 Safari/537.36" version="26.1.3">
  <diagram name="Pagina-1" id="tW7WO6cpCCdjkhQ7mJyI">
    <mxGraphModel dx="1050" dy="522" grid="1" gridSize="10" guides="1" tooltips="1" connect="1" arrows="1" fold="1" page="1" pageScale="1" pageWidth="2339" pageHeight="3300" math="0" shadow="0">
      <root>
        <mxCell id="0" />
        <mxCell id="1" parent="0" />
        <mxCell id="8VTGi8WfioYzq3SnvPgz-1" value="&lt;font style=&quot;font-size: 25px;&quot; face=&quot;Comic Sans MS&quot;&gt;*&lt;/font&gt;" style="ellipse;whiteSpace=wrap;html=1;aspect=fixed;" vertex="1" parent="1">
          <mxGeometry x="420" y="60" width="50" height="50" as="geometry" />
        </mxCell>
        <mxCell id="8VTGi8WfioYzq3SnvPgz-2" value="&lt;font face=&quot;Comic Sans MS&quot;&gt;&lt;span style=&quot;font-size: 25px;&quot;&gt;B&lt;/span&gt;&lt;/font&gt;" style="ellipse;whiteSpace=wrap;html=1;aspect=fixed;" vertex="1" parent="1">
          <mxGeometry x="280" y="160" width="50" height="50" as="geometry" />
        </mxCell>
        <mxCell id="8VTGi8WfioYzq3SnvPgz-3" value="&lt;font face=&quot;Comic Sans MS&quot;&gt;&lt;span style=&quot;font-size: 25px;&quot;&gt;R&lt;/span&gt;&lt;/font&gt;" style="ellipse;whiteSpace=wrap;html=1;aspect=fixed;" vertex="1" parent="1">
          <mxGeometry x="940" y="160" width="50" height="50" as="geometry" />
        </mxCell>
        <mxCell id="8VTGi8WfioYzq3SnvPgz-4" value="&lt;font face=&quot;Comic Sans MS&quot;&gt;&lt;span style=&quot;font-size: 25px;&quot;&gt;M&lt;/span&gt;&lt;/font&gt;" style="ellipse;whiteSpace=wrap;html=1;aspect=fixed;" vertex="1" parent="1">
          <mxGeometry x="590" y="160" width="50" height="50" as="geometry" />
        </mxCell>
        <mxCell id="8VTGi8WfioYzq3SnvPgz-5" value="&lt;font face=&quot;Comic Sans MS&quot;&gt;&lt;span style=&quot;font-size: 25px;&quot;&gt;A&lt;/span&gt;&lt;/font&gt;" style="ellipse;whiteSpace=wrap;html=1;aspect=fixed;" vertex="1" parent="1">
          <mxGeometry x="170" y="240" width="50" height="50" as="geometry" />
        </mxCell>
        <mxCell id="8VTGi8WfioYzq3SnvPgz-6" value="&lt;font face=&quot;Comic Sans MS&quot;&gt;&lt;span style=&quot;font-size: 25px;&quot;&gt;L&lt;/span&gt;&lt;/font&gt;" style="ellipse;whiteSpace=wrap;html=1;aspect=fixed;" vertex="1" parent="1">
          <mxGeometry x="170" y="350" width="50" height="50" as="geometry" />
        </mxCell>
        <mxCell id="8VTGi8WfioYzq3SnvPgz-7" value="&lt;font face=&quot;Comic Sans MS&quot;&gt;&lt;span style=&quot;font-size: 25px;&quot;&gt;L&lt;/span&gt;&lt;/font&gt;" style="ellipse;whiteSpace=wrap;html=1;aspect=fixed;" vertex="1" parent="1">
          <mxGeometry x="170" y="430" width="50" height="50" as="geometry" />
        </mxCell>
        <mxCell id="8VTGi8WfioYzq3SnvPgz-8" value="&lt;font face=&quot;Comic Sans MS&quot;&gt;&lt;span style=&quot;font-size: 25px;&quot;&gt;*&lt;/span&gt;&lt;/font&gt;" style="ellipse;whiteSpace=wrap;html=1;aspect=fixed;" vertex="1" parent="1">
          <mxGeometry x="100" y="500" width="50" height="50" as="geometry" />
        </mxCell>
        <mxCell id="8VTGi8WfioYzq3SnvPgz-9" value="&lt;font face=&quot;Comic Sans MS&quot;&gt;&lt;span style=&quot;font-size: 25px;&quot;&gt;E&lt;/span&gt;&lt;/font&gt;" style="ellipse;whiteSpace=wrap;html=1;aspect=fixed;" vertex="1" parent="1">
          <mxGeometry x="230" y="510" width="50" height="50" as="geometry" />
        </mxCell>
        <mxCell id="8VTGi8WfioYzq3SnvPgz-10" value="&lt;font face=&quot;Comic Sans MS&quot;&gt;&lt;span style=&quot;font-size: 25px;&quot;&gt;R&lt;/span&gt;&lt;/font&gt;" style="ellipse;whiteSpace=wrap;html=1;aspect=fixed;" vertex="1" parent="1">
          <mxGeometry x="300" y="600" width="50" height="50" as="geometry" />
        </mxCell>
        <mxCell id="8VTGi8WfioYzq3SnvPgz-11" value="&lt;font face=&quot;Comic Sans MS&quot;&gt;&lt;span style=&quot;font-size: 25px;&quot;&gt;T&lt;/span&gt;&lt;/font&gt;" style="ellipse;whiteSpace=wrap;html=1;aspect=fixed;" vertex="1" parent="1">
          <mxGeometry x="290" y="350" width="50" height="50" as="geometry" />
        </mxCell>
        <mxCell id="8VTGi8WfioYzq3SnvPgz-12" value="&lt;font face=&quot;Comic Sans MS&quot;&gt;&lt;span style=&quot;font-size: 25px;&quot;&gt;*&lt;/span&gt;&lt;/font&gt;" style="ellipse;whiteSpace=wrap;html=1;aspect=fixed;" vertex="1" parent="1">
          <mxGeometry x="300" y="430" width="50" height="50" as="geometry" />
        </mxCell>
        <mxCell id="8VTGi8WfioYzq3SnvPgz-13" value="&lt;font face=&quot;Comic Sans MS&quot;&gt;&lt;span style=&quot;font-size: 25px;&quot;&gt;E&lt;/span&gt;&lt;/font&gt;" style="ellipse;whiteSpace=wrap;html=1;aspect=fixed;" vertex="1" parent="1">
          <mxGeometry x="390" y="270" width="50" height="50" as="geometry" />
        </mxCell>
        <mxCell id="8VTGi8WfioYzq3SnvPgz-14" value="&lt;font face=&quot;Comic Sans MS&quot;&gt;&lt;span style=&quot;font-size: 25px;&quot;&gt;A&lt;/span&gt;&lt;/font&gt;" style="ellipse;whiteSpace=wrap;html=1;aspect=fixed;" vertex="1" parent="1">
          <mxGeometry x="390" y="360" width="50" height="50" as="geometry" />
        </mxCell>
        <mxCell id="8VTGi8WfioYzq3SnvPgz-15" value="&lt;font face=&quot;Comic Sans MS&quot;&gt;&lt;span style=&quot;font-size: 25px;&quot;&gt;R&lt;/span&gt;&lt;/font&gt;" style="ellipse;whiteSpace=wrap;html=1;aspect=fixed;" vertex="1" parent="1">
          <mxGeometry x="390" y="450" width="50" height="50" as="geometry" />
        </mxCell>
        <mxCell id="8VTGi8WfioYzq3SnvPgz-16" value="&lt;font face=&quot;Comic Sans MS&quot;&gt;&lt;span style=&quot;font-size: 25px;&quot;&gt;*&lt;/span&gt;&lt;/font&gt;" style="ellipse;whiteSpace=wrap;html=1;aspect=fixed;" vertex="1" parent="1">
          <mxGeometry x="390" y="530" width="50" height="50" as="geometry" />
        </mxCell>
        <mxCell id="8VTGi8WfioYzq3SnvPgz-17" value="&lt;font face=&quot;Comic Sans MS&quot;&gt;&lt;span style=&quot;font-size: 25px;&quot;&gt;M&lt;/span&gt;&lt;/font&gt;" style="ellipse;whiteSpace=wrap;html=1;aspect=fixed;" vertex="1" parent="1">
          <mxGeometry x="480" y="450" width="50" height="50" as="geometry" />
        </mxCell>
        <mxCell id="8VTGi8WfioYzq3SnvPgz-18" value="&lt;font face=&quot;Comic Sans MS&quot;&gt;&lt;span style=&quot;font-size: 25px;&quot;&gt;*&lt;/span&gt;&lt;/font&gt;" style="ellipse;whiteSpace=wrap;html=1;aspect=fixed;" vertex="1" parent="1">
          <mxGeometry x="480" y="530" width="50" height="50" as="geometry" />
        </mxCell>
        <mxCell id="8VTGi8WfioYzq3SnvPgz-21" value="&lt;font face=&quot;Comic Sans MS&quot;&gt;&lt;span style=&quot;font-size: 25px;&quot;&gt;L&lt;/span&gt;&lt;/font&gt;" style="ellipse;whiteSpace=wrap;html=1;aspect=fixed;" vertex="1" parent="1">
          <mxGeometry x="510" y="270" width="50" height="50" as="geometry" />
        </mxCell>
        <mxCell id="8VTGi8WfioYzq3SnvPgz-22" value="&lt;font face=&quot;Comic Sans MS&quot;&gt;&lt;span style=&quot;font-size: 25px;&quot;&gt;E&lt;/span&gt;&lt;/font&gt;" style="ellipse;whiteSpace=wrap;html=1;aspect=fixed;" vertex="1" parent="1">
          <mxGeometry x="540" y="350" width="50" height="50" as="geometry" />
        </mxCell>
        <mxCell id="8VTGi8WfioYzq3SnvPgz-23" value="&lt;font face=&quot;Comic Sans MS&quot;&gt;&lt;span style=&quot;font-size: 25px;&quot;&gt;N&lt;/span&gt;&lt;/font&gt;" style="ellipse;whiteSpace=wrap;html=1;aspect=fixed;" vertex="1" parent="1">
          <mxGeometry x="570" y="420" width="50" height="50" as="geometry" />
        </mxCell>
        <mxCell id="8VTGi8WfioYzq3SnvPgz-24" value="&lt;font face=&quot;Comic Sans MS&quot;&gt;&lt;span style=&quot;font-size: 25px;&quot;&gt;D&lt;/span&gt;&lt;/font&gt;" style="ellipse;whiteSpace=wrap;html=1;aspect=fixed;" vertex="1" parent="1">
          <mxGeometry x="600" y="490" width="50" height="50" as="geometry" />
        </mxCell>
        <mxCell id="8VTGi8WfioYzq3SnvPgz-25" value="&lt;font face=&quot;Comic Sans MS&quot;&gt;&lt;span style=&quot;font-size: 25px;&quot;&gt;*&lt;/span&gt;&lt;/font&gt;" style="ellipse;whiteSpace=wrap;html=1;aspect=fixed;" vertex="1" parent="1">
          <mxGeometry x="600" y="570" width="50" height="50" as="geometry" />
        </mxCell>
      </root>
    </mxGraphModel>
  </diagram>
</mxfile>
